<svg width="20" height="20" viewBox="0 0 20 20" fill="none" xmlns="http://www.w3.org/2000/svg">
<path d="M6.66667 18.75V16.25H20V18.75H6.66667ZM6.66667 11.25V8.75H20V11.25H6.66667ZM6.66667 3.75V1.25H20V3.75H6.66667ZM2.22222 20C1.61111 20 1.08796 19.7552 0.652778 19.2656C0.217593 18.776 0 18.1875 0 17.5C0 16.8125 0.217593 16.224 0.652778 15.7344C1.08796 15.2448 1.61111 15 2.22222 15C2.83333 15 3.35648 15.2448 3.79167 15.7344C4.22685 16.224 4.44444 16.8125 4.44444 17.5C4.44444 18.1875 4.22685 18.776 3.79167 19.2656C3.35648 19.7552 2.83333 20 2.22222 20ZM2.22222 12.5C1.61111 12.5 1.08796 12.2552 0.652778 11.7656C0.217593 11.276 0 10.6875 0 10C0 9.3125 0.217593 8.72396 0.652778 8.23438C1.08796 7.74479 1.61111 7.5 2.22222 7.5C2.83333 7.5 3.35648 7.74479 3.79167 8.23438C4.22685 8.72396 4.44444 9.3125 4.44444 10C4.44444 10.6875 4.22685 11.276 3.79167 11.7656C3.35648 12.2552 2.83333 12.5 2.22222 12.5ZM2.22222 5C1.61111 5 1.08796 4.75521 0.652778 4.26563C0.217593 3.77604 0 3.1875 0 2.5C0 1.8125 0.217593 1.22396 0.652778 0.734375C1.08796 0.244792 1.61111 0 2.22222 0C2.83333 0 3.35648 0.244792 3.79167 0.734375C4.22685 1.22396 4.44444 1.8125 4.44444 2.5C4.44444 3.1875 4.22685 3.77604 3.79167 4.26563C3.35648 4.75521 2.83333 5 2.22222 5Z" fill="#AAAAAA"/>
</svg>
